<?xml version="1.0" encoding="UTF-8" standalone="no"?><svg xmlns="http://www.w3.org/2000/svg" xmlns:xlink="http://www.w3.org/1999/xlink" contentStyleType="text/css" height="734px" preserveAspectRatio="none" style="width:752px;height:734px;background:#FFFFFF;" version="1.1" viewBox="0 0 752 734" width="752px" zoomAndPan="magnify"><defs/><g><rect fill="none" height="26.4883" id="_title" style="stroke:none;stroke-width:1.0;" width="84" x="335.75" y="10"/><text fill="#000000" font-family="sans-serif" font-size="14" font-weight="bold" lengthAdjust="spacing" textLength="74" x="340.75" y="28.5352">Error Flow</text><rect fill="none" height="232.1738" style="stroke:#000000;stroke-width:1.5;" width="618" x="128.5" y="279.2188"/><line style="stroke:#181818;stroke-width:0.5;stroke-dasharray:5.0,5.0;" x1="43" x2="43" y1="118.9766" y2="653.6348"/><line style="stroke:#181818;stroke-width:0.5;stroke-dasharray:5.0,5.0;" x1="176.5" x2="176.5" y1="118.9766" y2="653.6348"/><line style="stroke:#181818;stroke-width:0.5;stroke-dasharray:5.0,5.0;" x1="473.5" x2="473.5" y1="118.9766" y2="653.6348"/><line style="stroke:#181818;stroke-width:0.5;stroke-dasharray:5.0,5.0;" x1="715.5" x2="715.5" y1="118.9766" y2="653.6348"/><text fill="#000000" font-family="sans-serif" font-size="14" lengthAdjust="spacing" textLength="41" x="20" y="116.0234">Driver</text><ellipse cx="43.5" cy="50.9883" fill="#E2E2F0" rx="8" ry="8" style="stroke:#181818;stroke-width:0.5;"/><path d="M43.5,58.9883 L43.5,85.9883 M30.5,66.9883 L56.5,66.9883 M43.5,85.9883 L30.5,100.9883 M43.5,85.9883 L56.5,100.9883 " fill="none" style="stroke:#181818;stroke-width:0.5;"/><text fill="#000000" font-family="sans-serif" font-size="14" lengthAdjust="spacing" textLength="41" x="20" y="666.1699">Driver</text><ellipse cx="43.5" cy="677.623" fill="#E2E2F0" rx="8" ry="8" style="stroke:#181818;stroke-width:0.5;"/><path d="M43.5,685.623 L43.5,712.623 M30.5,693.623 L56.5,693.623 M43.5,712.623 L30.5,727.623 M43.5,712.623 L56.5,727.623 " fill="none" style="stroke:#181818;stroke-width:0.5;"/><text fill="#000000" font-family="sans-serif" font-size="14" lengthAdjust="spacing" textLength="70" x="138.5" y="116.0234">Controller</text><ellipse cx="176.5" cy="50.9883" fill="#E2E2F0" rx="8" ry="8" style="stroke:#181818;stroke-width:0.5;"/><path d="M176.5,58.9883 L176.5,85.9883 M163.5,66.9883 L189.5,66.9883 M176.5,85.9883 L163.5,100.9883 M176.5,85.9883 L189.5,100.9883 " fill="none" style="stroke:#181818;stroke-width:0.5;"/><text fill="#000000" font-family="sans-serif" font-size="14" lengthAdjust="spacing" textLength="70" x="138.5" y="666.1699">Controller</text><ellipse cx="176.5" cy="677.623" fill="#E2E2F0" rx="8" ry="8" style="stroke:#181818;stroke-width:0.5;"/><path d="M176.5,685.623 L176.5,712.623 M163.5,693.623 L189.5,693.623 M176.5,712.623 L163.5,727.623 M176.5,712.623 L189.5,727.623 " fill="none" style="stroke:#181818;stroke-width:0.5;"/><text fill="#000000" font-family="sans-serif" font-size="14" lengthAdjust="spacing" textLength="64" x="438.5" y="116.0234">Workflow</text><ellipse cx="473.5" cy="50.9883" fill="#E2E2F0" rx="8" ry="8" style="stroke:#181818;stroke-width:0.5;"/><path d="M473.5,58.9883 L473.5,85.9883 M460.5,66.9883 L486.5,66.9883 M473.5,85.9883 L460.5,100.9883 M473.5,85.9883 L486.5,100.9883 " fill="none" style="stroke:#181818;stroke-width:0.5;"/><text fill="#000000" font-family="sans-serif" font-size="14" lengthAdjust="spacing" textLength="64" x="438.5" y="666.1699">Workflow</text><ellipse cx="473.5" cy="677.623" fill="#E2E2F0" rx="8" ry="8" style="stroke:#181818;stroke-width:0.5;"/><path d="M473.5,685.623 L473.5,712.623 M460.5,693.623 L486.5,693.623 M473.5,712.623 L460.5,727.623 M473.5,712.623 L486.5,727.623 " fill="none" style="stroke:#181818;stroke-width:0.5;"/><rect fill="#E2E2F0" height="30.4883" rx="2.5" ry="2.5" style="stroke:#181818;stroke-width:0.5;" width="42" x="694.5" y="87.4883"/><text fill="#000000" font-family="sans-serif" font-size="14" lengthAdjust="spacing" textLength="28" x="701.5" y="108.0234">GCS</text><rect fill="#E2E2F0" height="30.4883" rx="2.5" ry="2.5" style="stroke:#181818;stroke-width:0.5;" width="42" x="694.5" y="652.6348"/><text fill="#000000" font-family="sans-serif" font-size="14" lengthAdjust="spacing" textLength="28" x="701.5" y="673.1699">GCS</text><polygon fill="#181818" points="164.5,146.2871,174.5,150.2871,164.5,154.2871,168.5,150.2871" style="stroke:#181818;stroke-width:1.0;"/><line style="stroke:#181818;stroke-width:1.0;stroke-dasharray:2.0,2.0;" x1="43.5" x2="170.5" y1="150.2871" y2="150.2871"/><text fill="#000000" font-family="sans-serif" font-size="13" lengthAdjust="spacing" textLength="69" x="50.5" y="145.5449">Configures</text><polygon fill="#181818" points="703.5,175.5977,713.5,179.5977,703.5,183.5977,707.5,179.5977" style="stroke:#181818;stroke-width:1.0;"/><line style="stroke:#181818;stroke-width:1.0;stroke-dasharray:2.0,2.0;" x1="176.5" x2="709.5" y1="179.5977" y2="179.5977"/><text fill="#000000" font-family="sans-serif" font-size="13" lengthAdjust="spacing" textLength="113" x="183.5" y="174.8555">Scans Prep Bucket</text><line style="stroke:#181818;stroke-width:1.0;stroke-dasharray:2.0,2.0;" x1="176.5" x2="218.5" y1="208.9082" y2="208.9082"/><line style="stroke:#181818;stroke-width:1.0;stroke-dasharray:2.0,2.0;" x1="218.5" x2="218.5" y1="208.9082" y2="221.9082"/><line style="stroke:#181818;stroke-width:1.0;stroke-dasharray:2.0,2.0;" x1="177.5" x2="218.5" y1="221.9082" y2="221.9082"/><polygon fill="#181818" points="187.5,217.9082,177.5,221.9082,187.5,225.9082,183.5,221.9082" style="stroke:#181818;stroke-width:1.0;"/><text fill="#000000" font-family="sans-serif" font-size="13" lengthAdjust="spacing" textLength="165" x="183.5" y="204.166">Read Parameter from table</text><line style="stroke:#181818;stroke-width:1.0;stroke-dasharray:2.0,2.0;" x1="176.5" x2="218.5" y1="251.2188" y2="251.2188"/><line style="stroke:#181818;stroke-width:1.0;stroke-dasharray:2.0,2.0;" x1="218.5" x2="218.5" y1="251.2188" y2="264.2188"/><line style="stroke:#181818;stroke-width:1.0;stroke-dasharray:2.0,2.0;" x1="177.5" x2="218.5" y1="264.2188" y2="264.2188"/><polygon fill="#181818" points="187.5,260.2188,177.5,264.2188,187.5,268.2188,183.5,264.2188" style="stroke:#181818;stroke-width:1.0;"/><text fill="#000000" font-family="sans-serif" font-size="13" lengthAdjust="spacing" textLength="283" x="183.5" y="246.4766">Configure Prep and Archive Bucket locations.</text><path d="M128.5,279.2188 L202.5,279.2188 L202.5,286.5293 L192.5,296.5293 L128.5,296.5293 L128.5,279.2188 " fill="#EEEEEE" style="stroke:#000000;stroke-width:1.5;"/><rect fill="none" height="232.1738" style="stroke:#000000;stroke-width:1.5;" width="618" x="128.5" y="279.2188"/><text fill="#000000" font-family="sans-serif" font-size="13" font-weight="bold" lengthAdjust="spacing" textLength="29" x="143.5" y="292.7871">loop</text><text fill="#000000" font-family="sans-serif" font-size="11" font-weight="bold" lengthAdjust="spacing" textLength="157" x="217.5" y="291.8535">[for all files in prep bucket]</text><polygon fill="#181818" points="703.5,313.8398,713.5,317.8398,703.5,321.8398,707.5,317.8398" style="stroke:#181818;stroke-width:1.0;"/><line style="stroke:#181818;stroke-width:1.0;stroke-dasharray:2.0,2.0;" x1="176.5" x2="709.5" y1="317.8398" y2="317.8398"/><text fill="#000000" font-family="sans-serif" font-size="13" lengthAdjust="spacing" textLength="245" x="183.5" y="313.0977">Move Current File to Processing Bucket</text><polygon fill="#181818" points="703.5,343.1504,713.5,347.1504,703.5,351.1504,707.5,347.1504" style="stroke:#181818;stroke-width:1.0;"/><line style="stroke:#181818;stroke-width:1.0;stroke-dasharray:2.0,2.0;" x1="473.5" x2="709.5" y1="347.1504" y2="347.1504"/><text fill="#000000" font-family="sans-serif" font-size="13" lengthAdjust="spacing" textLength="218" x="480.5" y="342.4082">Reads file from processing  Bucket</text><line style="stroke:#181818;stroke-width:1.0;stroke-dasharray:2.0,2.0;" x1="473.5" x2="515.5" y1="376.4609" y2="376.4609"/><line style="stroke:#181818;stroke-width:1.0;stroke-dasharray:2.0,2.0;" x1="515.5" x2="515.5" y1="376.4609" y2="389.4609"/><line style="stroke:#181818;stroke-width:1.0;stroke-dasharray:2.0,2.0;" x1="474.5" x2="515.5" y1="389.4609" y2="389.4609"/><polygon fill="#181818" points="484.5,385.4609,474.5,389.4609,484.5,393.4609,480.5,389.4609" style="stroke:#181818;stroke-width:1.0;"/><text fill="#000000" font-family="sans-serif" font-size="13" lengthAdjust="spacing" textLength="110" x="480.5" y="371.7188">Processes the file</text><line style="stroke:#181818;stroke-width:1.0;stroke-dasharray:2.0,2.0;" x1="473.5" x2="515.5" y1="418.7715" y2="418.7715"/><line style="stroke:#181818;stroke-width:1.0;stroke-dasharray:2.0,2.0;" x1="515.5" x2="515.5" y1="418.7715" y2="431.7715"/><line style="stroke:#181818;stroke-width:1.0;stroke-dasharray:2.0,2.0;" x1="474.5" x2="515.5" y1="431.7715" y2="431.7715"/><polygon fill="#181818" points="484.5,427.7715,474.5,431.7715,484.5,435.7715,480.5,431.7715" style="stroke:#181818;stroke-width:1.0;"/><text fill="#000000" font-family="sans-serif" font-size="13" lengthAdjust="spacing" textLength="99" x="480.5" y="414.0293">Throws an Error</text><polygon fill="#181818" points="187.5,457.082,177.5,461.082,187.5,465.082,183.5,461.082" style="stroke:#181818;stroke-width:1.0;"/><line style="stroke:#181818;stroke-width:1.0;stroke-dasharray:2.0,2.0;" x1="181.5" x2="472.5" y1="461.082" y2="461.082"/><text fill="#000000" font-family="sans-serif" font-size="13" lengthAdjust="spacing" textLength="101" x="193.5" y="456.3398">signal job failed</text><line style="stroke:#181818;stroke-width:1.0;stroke-dasharray:2.0,2.0;" x1="176.5" x2="218.5" y1="490.3926" y2="490.3926"/><line style="stroke:#181818;stroke-width:1.0;stroke-dasharray:2.0,2.0;" x1="218.5" x2="218.5" y1="490.3926" y2="503.3926"/><line style="stroke:#181818;stroke-width:1.0;stroke-dasharray:2.0,2.0;" x1="177.5" x2="218.5" y1="503.3926" y2="503.3926"/><polygon fill="#181818" points="187.5,499.3926,177.5,503.3926,187.5,507.3926,183.5,503.3926" style="stroke:#181818;stroke-width:1.0;"/><text fill="#000000" font-family="sans-serif" font-size="13" lengthAdjust="spacing" textLength="59" x="183.5" y="485.6504">Exit Loop</text><polygon fill="#181818" points="703.5,560.0137,713.5,564.0137,703.5,568.0137,707.5,564.0137" style="stroke:#181818;stroke-width:1.0;"/><line style="stroke:#181818;stroke-width:1.0;stroke-dasharray:2.0,2.0;" x1="176.5" x2="709.5" y1="564.0137" y2="564.0137"/><text fill="#000000" font-family="sans-serif" font-size="13" lengthAdjust="spacing" textLength="319" x="183.5" y="559.2715">Return currently processing file(s) to Prep Folder(s)</text><line style="stroke:#181818;stroke-width:1.0;stroke-dasharray:2.0,2.0;" x1="176.5" x2="218.5" y1="593.3242" y2="593.3242"/><line style="stroke:#181818;stroke-width:1.0;stroke-dasharray:2.0,2.0;" x1="218.5" x2="218.5" y1="593.3242" y2="606.3242"/><line style="stroke:#181818;stroke-width:1.0;stroke-dasharray:2.0,2.0;" x1="177.5" x2="218.5" y1="606.3242" y2="606.3242"/><polygon fill="#181818" points="187.5,602.3242,177.5,606.3242,187.5,610.3242,183.5,606.3242" style="stroke:#181818;stroke-width:1.0;"/><text fill="#000000" font-family="sans-serif" font-size="13" lengthAdjust="spacing" textLength="106" x="183.5" y="588.582">Raises Exception</text><polygon fill="#181818" points="54.5,631.6348,44.5,635.6348,54.5,639.6348,50.5,635.6348" style="stroke:#181818;stroke-width:1.0;"/><line style="stroke:#181818;stroke-width:1.0;stroke-dasharray:2.0,2.0;" x1="48.5" x2="175.5" y1="635.6348" y2="635.6348"/><text fill="#000000" font-family="sans-serif" font-size="13" lengthAdjust="spacing" textLength="109" x="60.5" y="630.8926">Signals Complete</text><!--MD5=[2680a1b1b41cd9fac6c593c9cff15892]
@startuml Error Path
actor Driver
actor Controller
actor Workflow
title Error Flow
Driver - - ->Controller:Configures
Controller - - -> GCS:Scans Prep Bucket
Controller - - -> Controller:Read Parameter from table
Controller - - -> Controller: Configure Prep and Archive Bucket locations.

loop for all files in prep bucket
    Controller - - -> GCS: Move Current File to Processing Bucket
    Workflow - - -> GCS: Reads file from processing  Bucket
    Workflow - - -> Workflow:Processes the file
    Workflow - - -> Workflow: Throws an Error
    Workflow - - -> Controller: signal job failed
    Controller - - -> Controller: Exit Loop
end 
break
Controller - - -> GCS: Return currently processing file(s) to Prep Folder(s)
Controller - - -> Controller: Raises Exception

Controller - - -> Driver:Signals Complete
@enduml

PlantUML version 1.2022.7(Mon Aug 22 10:01:30 MST 2022)
(GPL source distribution)
Java Runtime: OpenJDK Runtime Environment
JVM: OpenJDK 64-Bit Server VM
Default Encoding: UTF-8
Language: en
Country: US
--></g></svg>