<?xml version="1.0" encoding="UTF-8" standalone="no"?><svg xmlns="http://www.w3.org/2000/svg" xmlns:xlink="http://www.w3.org/1999/xlink" contentStyleType="text/css" height="583px" preserveAspectRatio="none" style="width:745px;height:583px;background:#FFFFFF;" version="1.1" viewBox="0 0 745 583" width="745px" zoomAndPan="magnify"><defs/><g><rect fill="none" height="26.4883" id="_title" style="stroke:none;stroke-width:1.0;" width="92" x="328.25" y="10"/><text fill="#000000" font-family="sans-serif" font-size="14" font-weight="bold" lengthAdjust="spacing" textLength="82" x="333.25" y="28.5352">Happy Path</text><rect fill="none" height="176.8633" style="stroke:#000000;stroke-width:1.5;" width="626" x="113.5" y="279.2188"/><line style="stroke:#181818;stroke-width:0.5;stroke-dasharray:5.0,5.0;" x1="28" x2="28" y1="118.9766" y2="502.3926"/><line style="stroke:#181818;stroke-width:0.5;stroke-dasharray:5.0,5.0;" x1="161.5" x2="161.5" y1="118.9766" y2="502.3926"/><line style="stroke:#181818;stroke-width:0.5;stroke-dasharray:5.0,5.0;" x1="458.5" x2="458.5" y1="118.9766" y2="502.3926"/><line style="stroke:#181818;stroke-width:0.5;stroke-dasharray:5.0,5.0;" x1="708.5" x2="708.5" y1="118.9766" y2="502.3926"/><text fill="#000000" font-family="sans-serif" font-size="14" lengthAdjust="spacing" textLength="41" x="5" y="116.0234">Driver</text><ellipse cx="28.5" cy="50.9883" fill="#E2E2F0" rx="8" ry="8" style="stroke:#181818;stroke-width:0.5;"/><path d="M28.5,58.9883 L28.5,85.9883 M15.5,66.9883 L41.5,66.9883 M28.5,85.9883 L15.5,100.9883 M28.5,85.9883 L41.5,100.9883 " fill="none" style="stroke:#181818;stroke-width:0.5;"/><text fill="#000000" font-family="sans-serif" font-size="14" lengthAdjust="spacing" textLength="41" x="5" y="514.9277">Driver</text><ellipse cx="28.5" cy="526.3809" fill="#E2E2F0" rx="8" ry="8" style="stroke:#181818;stroke-width:0.5;"/><path d="M28.5,534.3809 L28.5,561.3809 M15.5,542.3809 L41.5,542.3809 M28.5,561.3809 L15.5,576.3809 M28.5,561.3809 L41.5,576.3809 " fill="none" style="stroke:#181818;stroke-width:0.5;"/><text fill="#000000" font-family="sans-serif" font-size="14" lengthAdjust="spacing" textLength="70" x="123.5" y="116.0234">Controller</text><ellipse cx="161.5" cy="50.9883" fill="#E2E2F0" rx="8" ry="8" style="stroke:#181818;stroke-width:0.5;"/><path d="M161.5,58.9883 L161.5,85.9883 M148.5,66.9883 L174.5,66.9883 M161.5,85.9883 L148.5,100.9883 M161.5,85.9883 L174.5,100.9883 " fill="none" style="stroke:#181818;stroke-width:0.5;"/><text fill="#000000" font-family="sans-serif" font-size="14" lengthAdjust="spacing" textLength="70" x="123.5" y="514.9277">Controller</text><ellipse cx="161.5" cy="526.3809" fill="#E2E2F0" rx="8" ry="8" style="stroke:#181818;stroke-width:0.5;"/><path d="M161.5,534.3809 L161.5,561.3809 M148.5,542.3809 L174.5,542.3809 M161.5,561.3809 L148.5,576.3809 M161.5,561.3809 L174.5,576.3809 " fill="none" style="stroke:#181818;stroke-width:0.5;"/><text fill="#000000" font-family="sans-serif" font-size="14" lengthAdjust="spacing" textLength="64" x="423.5" y="116.0234">Workflow</text><ellipse cx="458.5" cy="50.9883" fill="#E2E2F0" rx="8" ry="8" style="stroke:#181818;stroke-width:0.5;"/><path d="M458.5,58.9883 L458.5,85.9883 M445.5,66.9883 L471.5,66.9883 M458.5,85.9883 L445.5,100.9883 M458.5,85.9883 L471.5,100.9883 " fill="none" style="stroke:#181818;stroke-width:0.5;"/><text fill="#000000" font-family="sans-serif" font-size="14" lengthAdjust="spacing" textLength="64" x="423.5" y="514.9277">Workflow</text><ellipse cx="458.5" cy="526.3809" fill="#E2E2F0" rx="8" ry="8" style="stroke:#181818;stroke-width:0.5;"/><path d="M458.5,534.3809 L458.5,561.3809 M445.5,542.3809 L471.5,542.3809 M458.5,561.3809 L445.5,576.3809 M458.5,561.3809 L471.5,576.3809 " fill="none" style="stroke:#181818;stroke-width:0.5;"/><rect fill="#E2E2F0" height="30.4883" rx="2.5" ry="2.5" style="stroke:#181818;stroke-width:0.5;" width="42" x="687.5" y="87.4883"/><text fill="#000000" font-family="sans-serif" font-size="14" lengthAdjust="spacing" textLength="28" x="694.5" y="108.0234">GCS</text><rect fill="#E2E2F0" height="30.4883" rx="2.5" ry="2.5" style="stroke:#181818;stroke-width:0.5;" width="42" x="687.5" y="501.3926"/><text fill="#000000" font-family="sans-serif" font-size="14" lengthAdjust="spacing" textLength="28" x="694.5" y="521.9277">GCS</text><polygon fill="#181818" points="149.5,146.2871,159.5,150.2871,149.5,154.2871,153.5,150.2871" style="stroke:#181818;stroke-width:1.0;"/><line style="stroke:#181818;stroke-width:1.0;stroke-dasharray:2.0,2.0;" x1="28.5" x2="155.5" y1="150.2871" y2="150.2871"/><text fill="#000000" font-family="sans-serif" font-size="13" lengthAdjust="spacing" textLength="69" x="35.5" y="145.5449">Configures</text><polygon fill="#181818" points="696.5,175.5977,706.5,179.5977,696.5,183.5977,700.5,179.5977" style="stroke:#181818;stroke-width:1.0;"/><line style="stroke:#181818;stroke-width:1.0;stroke-dasharray:2.0,2.0;" x1="161.5" x2="702.5" y1="179.5977" y2="179.5977"/><text fill="#000000" font-family="sans-serif" font-size="13" lengthAdjust="spacing" textLength="113" x="168.5" y="174.8555">Scans Prep Bucket</text><line style="stroke:#181818;stroke-width:1.0;stroke-dasharray:2.0,2.0;" x1="161.5" x2="203.5" y1="208.9082" y2="208.9082"/><line style="stroke:#181818;stroke-width:1.0;stroke-dasharray:2.0,2.0;" x1="203.5" x2="203.5" y1="208.9082" y2="221.9082"/><line style="stroke:#181818;stroke-width:1.0;stroke-dasharray:2.0,2.0;" x1="162.5" x2="203.5" y1="221.9082" y2="221.9082"/><polygon fill="#181818" points="172.5,217.9082,162.5,221.9082,172.5,225.9082,168.5,221.9082" style="stroke:#181818;stroke-width:1.0;"/><text fill="#000000" font-family="sans-serif" font-size="13" lengthAdjust="spacing" textLength="165" x="168.5" y="204.166">Read Parameter from table</text><line style="stroke:#181818;stroke-width:1.0;stroke-dasharray:2.0,2.0;" x1="161.5" x2="203.5" y1="251.2188" y2="251.2188"/><line style="stroke:#181818;stroke-width:1.0;stroke-dasharray:2.0,2.0;" x1="203.5" x2="203.5" y1="251.2188" y2="264.2188"/><line style="stroke:#181818;stroke-width:1.0;stroke-dasharray:2.0,2.0;" x1="162.5" x2="203.5" y1="264.2188" y2="264.2188"/><polygon fill="#181818" points="172.5,260.2188,162.5,264.2188,172.5,268.2188,168.5,264.2188" style="stroke:#181818;stroke-width:1.0;"/><text fill="#000000" font-family="sans-serif" font-size="13" lengthAdjust="spacing" textLength="283" x="168.5" y="246.4766">Configure Prep and Archive Bucket locations.</text><path d="M113.5,279.2188 L187.5,279.2188 L187.5,286.5293 L177.5,296.5293 L113.5,296.5293 L113.5,279.2188 " fill="#EEEEEE" style="stroke:#000000;stroke-width:1.5;"/><rect fill="none" height="176.8633" style="stroke:#000000;stroke-width:1.5;" width="626" x="113.5" y="279.2188"/><text fill="#000000" font-family="sans-serif" font-size="13" font-weight="bold" lengthAdjust="spacing" textLength="29" x="128.5" y="292.7871">loop</text><text fill="#000000" font-family="sans-serif" font-size="11" font-weight="bold" lengthAdjust="spacing" textLength="157" x="202.5" y="291.8535">[for all files in prep bucket]</text><polygon fill="#181818" points="696.5,313.8398,706.5,317.8398,696.5,321.8398,700.5,317.8398" style="stroke:#181818;stroke-width:1.0;"/><line style="stroke:#181818;stroke-width:1.0;stroke-dasharray:2.0,2.0;" x1="161.5" x2="702.5" y1="317.8398" y2="317.8398"/><text fill="#000000" font-family="sans-serif" font-size="13" lengthAdjust="spacing" textLength="245" x="168.5" y="313.0977">Move Current File to Processing Bucket</text><polygon fill="#181818" points="696.5,343.1504,706.5,347.1504,696.5,351.1504,700.5,347.1504" style="stroke:#181818;stroke-width:1.0;"/><line style="stroke:#181818;stroke-width:1.0;stroke-dasharray:2.0,2.0;" x1="458.5" x2="702.5" y1="347.1504" y2="347.1504"/><text fill="#000000" font-family="sans-serif" font-size="13" lengthAdjust="spacing" textLength="226" x="465.5" y="342.4082">: Reads file from processing  Bucket</text><line style="stroke:#181818;stroke-width:1.0;stroke-dasharray:2.0,2.0;" x1="458.5" x2="500.5" y1="376.4609" y2="376.4609"/><line style="stroke:#181818;stroke-width:1.0;stroke-dasharray:2.0,2.0;" x1="500.5" x2="500.5" y1="376.4609" y2="389.4609"/><line style="stroke:#181818;stroke-width:1.0;stroke-dasharray:2.0,2.0;" x1="459.5" x2="500.5" y1="389.4609" y2="389.4609"/><polygon fill="#181818" points="469.5,385.4609,459.5,389.4609,469.5,393.4609,465.5,389.4609" style="stroke:#181818;stroke-width:1.0;"/><text fill="#000000" font-family="sans-serif" font-size="13" lengthAdjust="spacing" textLength="110" x="465.5" y="371.7188">Processes the file</text><polygon fill="#181818" points="172.5,414.7715,162.5,418.7715,172.5,422.7715,168.5,418.7715" style="stroke:#181818;stroke-width:1.0;"/><line style="stroke:#181818;stroke-width:1.0;stroke-dasharray:2.0,2.0;" x1="166.5" x2="457.5" y1="418.7715" y2="418.7715"/><text fill="#000000" font-family="sans-serif" font-size="13" lengthAdjust="spacing" textLength="126" x="178.5" y="414.0293">Signal job Complete</text><polygon fill="#181818" points="696.5,444.082,706.5,448.082,696.5,452.082,700.5,448.082" style="stroke:#181818;stroke-width:1.0;"/><line style="stroke:#181818;stroke-width:1.0;stroke-dasharray:2.0,2.0;" x1="161.5" x2="702.5" y1="448.082" y2="448.082"/><text fill="#000000" font-family="sans-serif" font-size="13" lengthAdjust="spacing" textLength="216" x="168.5" y="443.3398">Archive Current File to GCS Bucket</text><polygon fill="#181818" points="39.5,480.3926,29.5,484.3926,39.5,488.3926,35.5,484.3926" style="stroke:#181818;stroke-width:1.0;"/><line style="stroke:#181818;stroke-width:1.0;stroke-dasharray:2.0,2.0;" x1="33.5" x2="160.5" y1="484.3926" y2="484.3926"/><text fill="#000000" font-family="sans-serif" font-size="13" lengthAdjust="spacing" textLength="109" x="45.5" y="479.6504">Signals Complete</text><!--MD5=[31c3d375dfb9f0974ae7884df35139db]
@startuml Happy Path
actor Driver
actor Controller
actor Workflow
title Happy Path
Driver - - ->Controller:Configures
Controller - - -> GCS:Scans Prep Bucket
Controller - - -> Controller:Read Parameter from table
Controller - - -> Controller: Configure Prep and Archive Bucket locations.

loop for all files in prep bucket
    Controller - - -> GCS: Move Current File to Processing Bucket
    Workflow - - -> GCS:: Reads file from processing  Bucket
    Workflow - - -> Workflow:Processes the file
    Workflow - - -> Controller: Signal job Complete 
    Controller - - -> GCS: Archive Current File to GCS Bucket
end 

Controller - - -> Driver:Signals Complete

@enduml

PlantUML version 1.2022.7(Mon Aug 22 10:01:30 MST 2022)
(GPL source distribution)
Java Runtime: OpenJDK Runtime Environment
JVM: OpenJDK 64-Bit Server VM
Default Encoding: UTF-8
Language: en
Country: US
--></g></svg>